<svg width="72" height="72" viewBox="0 0 72 72" fill="none" xmlns="http://www.w3.org/2000/svg">
<rect width="72" height="72" rx="36" fill="#7B2CBF"/>
<path fill-rule="evenodd" clip-rule="evenodd" d="M44.543 36.9072C42.3156 37.809 39.9113 38.3652 37.3967 38.5094C36.963 38.5342 36.526 38.5468 36.0861 38.5468C35.6462 38.5468 35.2092 38.5342 34.7756 38.5094C32.2603 38.3652 29.8555 37.8087 27.6277 36.9065C22.9525 35.0132 19.0568 31.5971 16.5557 27.2734C20.4541 20.5341 27.7406 16 36.0861 16C44.4316 16 51.7181 20.5341 55.6166 27.2734C53.1152 31.5976 49.2189 35.0139 44.543 36.9072Z" fill="white"/>
<path d="M27.6272 38.6616C27.0886 38.4434 26.5604 38.2051 26.0434 37.9475C24.3633 39.131 22.943 40.6051 21.8735 42.2868C23.6914 45.1454 26.5228 47.4038 29.9207 48.6556C31.5399 49.2521 33.2877 49.62 35.1158 49.7153H37.0208C38.8485 49.62 42.0608 51.4306 37.3962 55.9999C40.7946 54.7483 48.445 45.1457 50.263 42.2868C49.1966 40.6099 47.7813 39.1394 46.1075 37.9576C45.5965 38.2116 45.0745 38.4468 44.5425 38.6622C42.3151 39.564 39.9108 40.1203 37.3962 40.2644C36.9625 40.2892 36.5255 40.3018 36.0856 40.3018C35.6457 40.3018 35.2088 40.2892 34.7751 40.2644C32.2598 40.1202 29.855 39.5638 27.6272 38.6616Z" fill="white"/>
<rect x="26.6685" y="24.3896" width="18.8764" height="6.74157" rx="3.37078" fill="#162550"/>
<ellipse cx="41.3121" cy="27.7229" rx="1.23596" ry="1.23595" fill="#04FED1"/>
<circle cx="36.0682" cy="44.352" r="1.23596" fill="#162550"/>
<ellipse cx="31.1254" cy="27.7229" rx="1.23596" ry="1.23595" fill="#04FED1"/>
<ellipse cx="31.1254" cy="44.352" rx="1.23596" ry="1.23596" fill="#162550"/>
<circle cx="41.0128" cy="44.352" r="1.23596" fill="#162550"/>
</svg>
