<svg width="33" height="32" viewBox="0 0 33 32" fill="none" xmlns="http://www.w3.org/2000/svg">
<path d="M27.9725 25.0347V11.8174H4.32037V25.0347C4.32037 26.5715 5.53059 27.8174 7.02348 27.8174H25.2695C26.7623 27.8174 27.9725 26.5715 27.9725 25.0347Z" fill="#A56644"/>
<path d="M2.92908 6.9478C2.92908 5.41101 4.17489 4.16519 5.71169 4.16519H11.9726V11.8174H2.92908V6.9478Z" fill="#EA2B2B"/>
<path d="M2.92908 11.8174H11.9726V12.1652C11.9726 14.6625 9.94814 16.6869 7.45082 16.6869C4.95353 16.6869 2.92908 14.6625 2.92908 12.1652V11.8174Z" fill="#FF4945"/>
<path d="M11.9726 11.8174H20.3204V12.1652C20.3204 14.6625 18.4517 16.6869 16.1465 16.6869C13.8413 16.6869 11.9726 14.6625 11.9726 12.1652V11.8174Z" fill="white"/>
<path d="M20.3204 11.8174H29.3639V12.1652C29.3639 14.6625 27.3394 16.6869 24.8421 16.6869C22.3448 16.6869 20.3204 14.6625 20.3204 12.1652V11.8174Z" fill="#FF4945"/>
<path d="M11.9726 4.16519H20.3204V11.8174H11.9726V4.16519Z" fill="#D0D0D0"/>
<path d="M20.3204 4.16519H26.5812C28.118 4.16519 29.3639 5.41101 29.3639 6.9478V11.8174H20.3204V4.16519Z" fill="#EA2B2B"/>
<path d="M7.79865 20.8608C7.79865 20.0924 8.42153 19.4695 9.18995 19.4695H12.6682C13.4366 19.4695 14.0595 20.0924 14.0595 20.8608V27.8174H7.79865V20.8608Z" fill="#B9E8FF"/>
<path d="M16.8422 20.8608C16.8422 20.0924 17.4651 19.4695 18.2335 19.4695H23.7987C24.5671 19.4695 25.19 20.0924 25.19 20.8608V23.6435C25.19 24.4119 24.5671 25.0348 23.7987 25.0348H18.2335C17.4651 25.0348 16.8422 24.4119 16.8422 23.6435V20.8608Z" fill="#B9E8FF"/>
</svg>
