<svg enable-background="new 0 0 128 128" viewBox="0 0 128 128" xmlns="http://www.w3.org/2000/svg" xmlns:xlink="http://www.w3.org/1999/xlink"><linearGradient id="a" gradientUnits="userSpaceOnUse" x1="53.999" x2="53.999" y1="26.361" y2="97.572"><stop offset="0" stop-color="#ffa726"/><stop offset="1" stop-color="#fb8c00"/></linearGradient><linearGradient id="b" gradientUnits="userSpaceOnUse" x1="59.958" x2="59.958" y1="-11.408" y2="129.05"><stop offset="0" stop-color="#90a4ae"/><stop offset="1" stop-color="#607d8b"/></linearGradient><path d="m8 27.98c-2.21 0-4 1.79-4 4v4c0 1.88 1.31 3.45 3.06 3.88.3.07.62.12.94.12h4.01c0 .28 9.49 48.85 9.49 48.85.36 1.84 1.85 3.16 3.58 3.16h62.98l10.2-52.01h4.47v-.12l1.26-3.88v-8z" fill="url(#a)"/><g fill="#f57c00"><path d="m4 35.98c0 1.88 1.31 3.45 3.06 3.88h95.68l1.26-3.88z"/><path d="m20.54 48.42 7.11 32.01c.2.92 1.01 1.57 1.95 1.57h4.4c1.1 0 2-.9 2-2v-32.01c0-1.1-.9-2-2-2h-11.51c-1.28 0-2.23 1.18-1.95 2.43z"/><path d="m83.46 48.42-7.11 32.01c-.2.92-1.01 1.57-1.95 1.57h-4.4c-1.1 0-2-.9-2-2v-32.01c0-1.1.9-2 2-2h11.51c1.27 0 2.23 1.18 1.95 2.43z"/><path d="m46.23 45.99h11.53c1.19 0 2.12 1.04 1.99 2.22l-3.55 32c-.11 1.01-.97 1.78-1.99 1.78h-4.42c-1.02 0-1.88-.77-1.99-1.78l-3.56-32.01c-.13-1.18.8-2.21 1.99-2.21z"/></g><path d="m101 30.98v4.53l-.48 1.48h-2.25c-1.43 0-2.67 1.02-2.94 2.42l-9.73 49.59h-60.52c-.24 0-.55-.28-.64-.74-2.54-12.99-9.15-46.84-9.47-48.68-.2-1.47-1.45-2.59-2.97-2.59h-4c-.02 0-.09 0-.23-.04-.37-.09-.77-.43-.77-.97v-4c0-.55.45-1 1-1zm3-3h-96c-2.21 0-4 1.79-4 4v4c0 1.88 1.31 3.45 3.06 3.88.3.07.62.12.94.12h4.01c0 .28 9.49 48.85 9.49 48.85.36 1.84 1.85 3.16 3.58 3.16h62.98l10.21-52.01h4.47v-.12l1.26-3.88z" fill="#424242" opacity=".2"/><path d="m34 47.99v32.01h-4.4l-7.11-32.01zm0-2h-11.51c-1.28 0-2.23 1.19-1.95 2.43l7.11 32.01c.2.92 1.01 1.57 1.95 1.57h4.4c1.1 0 2-.9 2-2v-32.01c0-1.11-.9-2-2-2z" fill="#424242" opacity=".2"/><path d="m81.51 47.99-7.11 32.01h-4.4v-32.01zm0-2h-11.51c-1.1 0-2 .9-2 2v32.01c0 1.1.9 2 2 2h4.4c.94 0 1.75-.65 1.95-1.57l7.11-32.01c.28-1.25-.68-2.43-1.95-2.43z" fill="#424242" opacity=".2"/><path d="m57.76 47.99-3.56 32.01h-4.42l-3.56-32.01zm0-2h-11.53c-1.19 0-2.12 1.04-1.99 2.22l3.56 32.01c.11 1.01.97 1.78 1.99 1.78h4.42c1.02 0 1.88-.77 1.99-1.78l3.56-32.01c.12-1.19-.8-2.22-2-2.22z" fill="#424242" opacity=".2"/><path d="m108.53 7.59c-2.36.79-4.19 2.68-4.9 5.06l-23.46 78.2c-.29.98-.2 2.03.25 2.94l3.66 7.32c.67 1.33-.3 2.9-1.79 2.9h-70.29c-2.34 0-4.21 2.01-3.98 4.39.2 2.08 2.06 3.61 4.15 3.61h79.68c.97 0 1.95-.29 2.7-.91 1.48-1.24 1.84-3.26 1.03-4.88l-5.65-11.29c-1.06-2.11-1.27-4.55-.59-6.81l21.59-71.99c.15-.52.51-.93.98-1.18l-3.32-7.37-.06.01z" fill="url(#b)"/><path d="m123.45 5.95c-.95-1.66-3-2.34-4.81-1.73l-10.04 3.35 3.32 7.37c.1-.05.19-.11.3-.14l9.04-3.02c2.36-.79 3.5-3.55 2.19-5.83z" fill="#f57c00"/><path d="m119.97 6c.74 0 1.41.36 1.74.94.43.75.28 1.41.15 1.75-.22.56-.67 1-1.24 1.19l-9.04 3.02c-.26.09-.45.19-.61.28-.96.51-1.65 1.35-1.96 2.37l-21.58 71.98c-.83 2.76-.57 5.7.71 8.28l5.65 11.29c.42.83.2 1.84-.53 2.45-.34.29-.85.45-1.41.45h-79.68c-1.12 0-2.07-.79-2.16-1.8-.06-.58.13-1.13.51-1.55s.91-.65 1.48-.65h70.29c1.4 0 2.67-.71 3.4-1.9s.8-2.64.18-3.89l-3.66-7.32c-.23-.46-.27-.98-.13-1.47l23.46-78.2c.53-1.76 1.88-3.15 3.62-3.73l.06-.02 10.04-3.35c.24-.08.47-.12.71-.12m0-2c-.45 0-.9.07-1.34.22l-10.04 3.35-.06.02c-2.36.79-4.19 2.68-4.9 5.06l-23.46 78.2c-.29.98-.2 2.03.25 2.94l3.66 7.32c.67 1.33-.3 2.9-1.79 2.9h-70.29c-2.34 0-4.21 2.01-3.98 4.39.2 2.08 2.06 3.61 4.15 3.61h79.68c.97 0 1.95-.29 2.7-.91 1.48-1.24 1.84-3.26 1.03-4.88l-5.65-11.29c-1.06-2.11-1.27-4.55-.59-6.81l21.59-71.99c.15-.52.51-.93.98-1.18.1-.05.19-.11.3-.14l9.04-3.02c2.35-.79 3.49-3.55 2.19-5.83-.71-1.27-2.06-1.96-3.47-1.96z" fill="#424242" opacity=".2"/><circle cx="28" cy="116" fill="#37474f" r="8"/><circle cx="80" cy="116" fill="#37474f" r="8"/><path d="m30 120h-4c-1.1 0-2-.9-2-2v-10h8v10c0 1.1-.9 2-2 2z" fill="#b0bec5"/><circle cx="28" cy="114" fill="#fafafa" r="2" stroke="#757575" stroke-miterlimit="10" stroke-width="1.0001"/><path d="m82 120h-4c-1.1 0-2-.9-2-2v-10h8v10c0 1.1-.9 2-2 2z" fill="#b0bec5"/><circle cx="80" cy="114" fill="#fafafa" r="2" stroke="#757575" stroke-miterlimit="10" stroke-width="1.0001"/></svg>