<svg width="92" height="176" viewBox="0 0 92 176" fill="none" xmlns="http://www.w3.org/2000/svg">
<path d="M60.4515 107.873H31.5025C27.2816 107.873 23.8281 104.42 23.8281 100.199V88.3385C23.8281 84.1176 27.2816 80.6641 31.5025 80.6641H60.4515C64.6724 80.6641 68.1259 84.1176 68.1259 88.3385V100.199C68.1259 104.42 64.6724 107.873 60.4515 107.873Z" fill="#383331"/>
<path d="M42.3962 95.5156H33.332V172.761H42.3962V95.5156Z" fill="#383331"/>
<path d="M43.0635 175.786H29.7173C27.9585 175.786 26.5195 174.347 26.5195 172.588C26.5195 170.83 27.9585 169.391 29.7173 169.391H43.0635C44.8223 169.391 46.2613 170.83 46.2613 172.588C46.2613 174.347 44.8223 175.786 43.0635 175.786Z" fill="#231F20"/>
<path d="M49.5569 172.758H58.6211L58.6211 95.5127H49.5569L49.5569 172.758Z" fill="#383331"/>
<path d="M48.8892 175.786H62.2354C63.9942 175.786 65.4332 174.347 65.4332 172.588C65.4332 170.83 63.9942 169.391 62.2354 169.391H48.8892C47.1304 169.391 45.6914 170.83 45.6914 172.588C45.6918 174.347 47.1307 175.786 48.8892 175.786Z" fill="#231F20"/>
<path d="M4.59008 119.658C6.00531 120.173 7.58485 119.437 8.09973 118.021L12.0137 107.268C12.5289 105.853 11.7922 104.273 10.3769 103.758C8.96171 103.243 7.38218 103.98 6.86729 105.395L2.95334 116.149C2.43845 117.564 3.17485 119.143 4.59008 119.658Z" fill="#F69B8A"/>
<path d="M1.49457 112.1L3.63085 109.01C5.04259 106.968 6.18747 104.754 7.03724 102.421L24.9574 53.3956C26.1919 50.0039 29.9422 48.2552 33.334 49.4897C36.7257 50.7242 38.4744 54.4742 37.2399 57.8663L18.5831 108.912C18.4289 109.335 18.3867 109.79 18.4603 110.234L19.0292 113.671C19.2797 115.184 18.266 116.651 16.7764 116.93C15.2869 117.209 13.8629 116.199 13.6125 114.685L13.2479 112.483C13.2015 112.203 13.0086 111.971 12.7425 111.874L9.77771 110.795C9.44247 110.673 9.06713 110.793 8.86445 111.086L5.96841 115.275C5.09213 116.542 3.36887 116.866 2.13817 115.992C0.908522 115.119 0.618638 113.368 1.49457 112.1Z" fill="#F8B3A0"/>
<path d="M24.9575 53.3956C26.192 50.0039 29.9424 48.2552 33.3338 49.4897C36.7255 50.7242 38.4742 54.4742 37.2397 57.8663L29.455 79.2284L17.3242 74.3416L24.9575 53.3956Z" fill="#338FCD"/>
<path d="M87.4122 119.658C85.997 120.173 84.4175 119.437 83.9026 118.021L79.9886 107.268C79.4734 105.853 80.2101 104.273 81.6254 103.758C83.0406 103.243 84.6201 103.98 85.135 105.395L89.049 116.149C89.5639 117.564 88.8275 119.143 87.4122 119.658Z" fill="#F69B8A"/>
<path d="M90.5085 112.1L88.3722 109.01C86.9605 106.968 85.8156 104.754 84.9658 102.421L67.0457 53.3956C65.8112 50.0039 62.0608 48.2552 58.6691 49.4897C55.2773 50.7242 53.5286 54.4742 54.7631 57.8663L73.42 108.912C73.5742 109.335 73.6164 109.79 73.5428 110.234L72.9738 113.671C72.7234 115.184 73.7371 116.651 75.2266 116.93C76.7162 117.209 78.1401 116.199 78.3906 114.685L78.7551 112.483C78.8015 112.203 78.9944 111.971 79.2606 111.874L82.2253 110.795C82.5606 110.673 82.9359 110.793 83.1386 111.086L86.0343 115.275C86.9106 116.542 88.6338 116.866 89.8645 115.992C91.0945 115.119 91.3844 113.368 90.5085 112.1Z" fill="#F8B3A0"/>
<path d="M67.0453 53.3956C65.8108 50.0039 62.0605 48.2552 58.6691 49.4897C55.2773 50.7242 53.5286 54.4742 54.7631 57.8663L62.5478 79.2284L74.6786 74.3416L67.0453 53.3956Z" fill="#338FCD"/>
<path d="M67.3792 54.9397C66.9536 51.4377 63.9812 48.8047 60.4534 48.8047H46.0164H45.9365H31.4996C27.9718 48.8047 24.9993 51.4381 24.5737 54.9397L19.9583 96.4101C19.833 97.441 20.6305 98.3521 21.6686 98.3647L70.3143 98.9546C71.3696 98.9675 72.1942 98.0476 72.0669 97L67.3792 54.9397Z" fill="#3FABE0"/>
<path d="M54.8782 51.3079V48.8047H46.0142H45.9343H37.0938V51.3079C37.0938 56.2112 41.0831 60.2002 45.986 60.2002C50.8889 60.2002 54.8782 56.2109 54.8782 51.3079Z" fill="#338FCD"/>
<path d="M45.9882 57.4142C42.6324 57.4142 39.8867 54.6685 39.8867 51.3127V34.039C39.8867 30.6832 42.6324 27.9375 45.9882 27.9375C49.344 27.9375 52.0897 30.6832 52.0897 34.039V51.3127C52.0894 54.6685 49.344 57.4142 45.9882 57.4142Z" fill="#F69B8A"/>
<path d="M48.2806 0.0378377C46.8615 -0.050767 45.6117 0.76307 45.0514 1.95784C44.8292 2.43156 44.3311 2.73365 43.8193 2.62516C43.5451 2.56691 43.256 2.55016 42.9584 2.58156C41.5348 2.73226 40.4883 3.99644 40.4883 5.42772C40.4883 7.71365 40.4883 12.2583 40.4883 14.5439C40.4883 15.9626 41.5191 17.2167 42.9284 17.3806C43.8811 17.4916 44.7521 17.1071 45.326 16.4555C45.9975 17.4305 47.1724 18.035 48.4683 17.8826C50.1619 17.6834 51.4027 16.1817 51.4027 14.4766V3.4697C51.4024 1.69202 50.0548 0.148419 48.2806 0.0378377Z" fill="#985632"/>
<path d="M49.1995 47.3554H42.6738C39.6714 47.3554 37.2148 44.8989 37.2148 41.8965C37.2148 38.894 39.6714 36.4375 42.6738 36.4375H49.1995C52.2019 36.4375 54.6584 38.894 54.6584 41.8965C54.6584 44.8989 52.2019 47.3554 49.1995 47.3554Z" fill="#F8B3A0"/>
<path d="M28.9619 31.6192C31.9612 31.6192 34.3926 29.1878 34.3926 26.1885C34.3926 23.1892 31.9612 20.7578 28.9619 20.7578C25.9627 20.7578 23.5312 23.1892 23.5312 26.1885C23.5312 29.1878 25.9627 31.6192 28.9619 31.6192Z" fill="#F69B8A"/>
<path d="M63.0166 31.6192C66.0159 31.6192 68.4473 29.1878 68.4473 26.1885C68.4473 23.1892 66.0159 20.7578 63.0166 20.7578C60.0173 20.7578 57.5859 23.1892 57.5859 26.1885C57.5859 29.1878 60.0173 31.6192 63.0166 31.6192Z" fill="#F69B8A"/>
<path d="M62.9144 36.6826V21.7265C62.9144 13.5623 56.2349 6.88281 48.0707 6.88281H43.9101C35.7459 6.88281 29.0664 13.5623 29.0664 21.7265V36.6826C29.0664 40.4089 32.0873 43.4298 35.8136 43.4298H56.1676C59.8938 43.4298 62.9144 40.4089 62.9144 36.6826Z" fill="#F8B3A0"/>
<path opacity="0.15" d="M29.0405 31.6172L28.9844 36.6827C28.9844 40.4089 32.0053 43.4299 35.7316 43.4299H37.3593C38.0262 45.6917 40.1238 47.356 42.5939 47.356H49.1196C51.5901 47.356 53.6873 45.6917 54.3543 43.4299H56.0855C59.8118 43.4299 62.8327 40.4089 62.8327 36.6827L62.8889 31.6172H29.0405Z" fill="#231F20"/>
<path d="M39.8868 29.304C39.021 29.304 38.3125 28.5955 38.3125 27.7297V22.3321C38.3125 21.4663 39.021 20.7578 39.8868 20.7578C40.7526 20.7578 41.4611 21.4663 41.4611 22.3321V27.7297C41.4611 28.5958 40.7526 29.304 39.8868 29.304Z" fill="#E48C7F"/>
<path d="M52.1993 29.304C51.3335 29.304 50.625 28.5955 50.625 27.7297V22.3321C50.625 21.4663 51.3335 20.7578 52.1993 20.7578C53.0651 20.7578 53.7736 21.4663 53.7736 22.3321V27.7297C53.7736 28.5958 53.0651 29.304 52.1993 29.304Z" fill="#E48C7F"/>
<path d="M48.0711 4.67188H43.9105C34.4912 4.67188 26.8555 12.3076 26.8555 21.7269V25.54C26.8555 26.1173 27.2776 26.6333 27.8524 26.688C28.5117 26.7508 29.0667 26.2342 29.0667 25.5875V21.7272C29.0667 15.1279 33.4324 9.50257 39.4178 7.58711C39.9526 7.41583 40.502 7.80653 40.5072 8.36815L40.5267 9.38676C40.5267 12.3777 42.9738 14.8248 45.9648 14.8248C48.9557 14.8248 51.4028 12.3777 51.4028 9.38676L51.3829 8.35525C51.3777 7.78943 51.9267 7.38792 52.4667 7.55641C58.5016 9.44153 62.9144 15.092 62.9144 21.7269V25.5397C62.9144 26.117 63.3365 26.6329 63.9114 26.6877C64.5707 26.7505 65.1257 26.2339 65.1257 25.5871V21.7269C65.1261 12.3079 57.4904 4.67188 48.0711 4.67188Z" fill="#985632"/>
<path d="M47.569 31.6189H44.3214C43.8633 31.6189 43.4922 31.2477 43.4922 30.7897V21.587C43.4922 21.129 43.8633 20.7578 44.3214 20.7578H47.569C48.0271 20.7578 48.3982 21.129 48.3982 21.587V30.7897C48.3982 31.2477 48.0271 31.6189 47.569 31.6189Z" fill="#F69B8A"/>
<g opacity="0.8">
<path d="M46.0154 36.6224C41.7344 36.6224 39.73 34.3149 39.647 34.2165C39.4374 33.9692 39.468 33.5987 39.7154 33.3891C39.9627 33.1794 40.3332 33.2105 40.5428 33.4574C40.6112 33.5366 42.3076 35.4483 46.0157 35.4483C49.7239 35.4483 51.4199 33.5366 51.4904 33.455C51.7018 33.2108 52.0719 33.1822 52.3171 33.3919C52.5624 33.6019 52.593 33.9695 52.3841 34.2162C52.3007 34.3149 50.2963 36.6224 46.0154 36.6224Z" fill="#BB8580"/>
</g>
<path d="M41.6754 19.711H38.0977C37.1865 19.711 36.4414 18.9655 36.4414 18.0547C36.4414 17.1436 37.1869 16.3984 38.0977 16.3984H41.6754C42.5865 16.3984 43.332 17.1439 43.332 18.0547C43.332 18.9655 42.5865 19.711 41.6754 19.711Z" fill="#985632"/>
<path d="M53.9879 19.711H50.4102C49.499 19.711 48.7539 18.9655 48.7539 18.0547C48.7539 17.1436 49.4994 16.3984 50.4102 16.3984H53.9879C54.899 16.3984 55.6441 17.1439 55.6441 18.0547C55.6445 18.9655 54.899 19.711 53.9879 19.711Z" fill="#985632"/>
</svg>
